<?xml version="1.0" encoding="UTF-8" standalone="no"?>
<!-- Created with Inkscape (http://www.inkscape.org/) -->

<svg
   xmlns:dc="http://purl.org/dc/elements/1.1/"
   xmlns:cc="http://creativecommons.org/ns#"
   xmlns:rdf="http://www.w3.org/1999/02/22-rdf-syntax-ns#"
   xmlns:svg="http://www.w3.org/2000/svg"
   xmlns="http://www.w3.org/2000/svg"
   xmlns:sodipodi="http://sodipodi.sourceforge.net/DTD/sodipodi-0.dtd"
   xmlns:inkscape="http://www.inkscape.org/namespaces/inkscape"
   width="744.09448819"
   height="1052.3622047"
   id="svg2985"
   version="1.1"
   inkscape:version="0.48.4 r9939"
   sodipodi:docname="player.svg">
  <defs
     id="defs2987">
    <inkscape:path-effect
       fuse_tolerance="-0.2"
       vertical_pattern="false"
       prop_units="false"
       tang_offset="0"
       normal_offset="0"
       spacing="10"
       scale_y_rel="false"
       prop_scale="1.05"
       copytype="repeated"
       pattern="m 23.920311,30.991383 c 0,5.46734 -3.48241,9.89949 -7.77818,9.89949 -4.29577,0 -7.77817,-4.43215 -7.77817,-9.89949 0,-5.46734 3.4824,-9.8995 7.77817,-9.8995 4.29577,0 7.77818,4.43216 7.77818,9.8995 z"
       is_visible="true"
       id="path-effect4200"
       effect="skeletal" />
    <inkscape:path-effect
       effect="skeletal"
       id="path-effect4196"
       is_visible="true"
       pattern="m -63.053823,24.870063 c 0,5.46734 -3.48241,9.89949 -7.77818,9.89949 -4.29577,0 -7.77817,-4.43215 -7.77817,-9.89949 0,-5.46734 3.4824,-9.8995 7.77817,-9.8995 4.29577,0 7.77818,4.43216 7.77818,9.8995 z"
       copytype="repeated"
       prop_scale="1.05"
       scale_y_rel="false"
       spacing="10"
       normal_offset="0"
       tang_offset="0"
       prop_units="false"
       vertical_pattern="false"
       fuse_tolerance="-0.2" />
    <inkscape:path-effect
       fuse_tolerance="-0.2"
       vertical_pattern="false"
       prop_units="false"
       tang_offset="0"
       normal_offset="0"
       spacing="10"
       scale_y_rel="false"
       prop_scale="1.05"
       copytype="repeated"
       pattern="m -65.053823,26.870063 c 0,5.46734 -3.48241,9.89949 -7.77818,9.89949 -4.29577,0 -7.77817,-4.43215 -7.77817,-9.89949 0,-5.46734 3.4824,-9.8995 7.77817,-9.8995 4.29577,0 7.77818,4.43216 7.77818,9.8995 z"
       is_visible="true"
       id="path-effect4156"
       effect="skeletal" />
    <inkscape:path-effect
       effect="skeletal"
       id="path-effect4146"
       is_visible="true"
       pattern="m 21.920311,28.991383 c 0,5.46734 -3.48241,9.89949 -7.77818,9.89949 -4.29577,0 -7.77817,-4.43215 -7.77817,-9.89949 0,-5.46734 3.4824,-9.8995 7.77817,-9.8995 4.29577,0 7.77818,4.43216 7.77818,9.8995 z"
       copytype="repeated"
       prop_scale="1.05"
       scale_y_rel="false"
       spacing="10"
       normal_offset="0"
       tang_offset="0"
       prop_units="false"
       vertical_pattern="false"
       fuse_tolerance="-0.2" />
  </defs>
  <sodipodi:namedview
     id="base"
     pagecolor="#ffffff"
     bordercolor="#666666"
     borderopacity="1.0"
     inkscape:pageopacity="0.0"
     inkscape:pageshadow="2"
     inkscape:zoom="1"
     inkscape:cx="229.54939"
     inkscape:cy="464.96"
     inkscape:document-units="px"
     showgrid="false"
     inkscape:window-width="960"
     inkscape:window-height="1062"
     inkscape:window-x="4800"
     inkscape:window-y="18"
     inkscape:window-maximized="0"
     inkscape:current-layer="layer7" />
  <metadata
     id="metadata2990">
    <rdf:RDF>
      <cc:Work
         rdf:about="">
        <dc:format>image/svg+xml</dc:format>
        <dc:type
           rdf:resource="http://purl.org/dc/dcmitype/StillImage" />
        <dc:title></dc:title>
      </cc:Work>
    </rdf:RDF>
  </metadata>
  <g
     inkscape:groupmode="layer"
     id="layer7"
     inkscape:label="wings"
     style="display:inline">
    <g
       id="g4017"
       transform="matrix(1.0590971,0,0,1.1425628,-21.621328,-110.10864)"
       inkscape:export-filename="/home/aaron/projects/pewpew/assets/graphics/player.png"
       inkscape:export-xdpi="26.063484"
       inkscape:export-ydpi="26.063484">
      <g
         transform="translate(-2.8284271,-4.2426407)"
         id="g3939"
         style="display:inline">
        <g
           id="g3960">
          <path
             style="fill:#009eff;fill-opacity:1;stroke:none;display:inline"
             d="m 429.28977,606.93361 c 44.28572,100 5.71429,181.42857 5.71429,181.42857 0,0 -0.5919,-52.60342 -4.28572,-78.57143 -3.85526,-27.10295 -18.57142,-80 -18.57142,-80 z"
             id="path3805"
             inkscape:connector-curvature="0"
             sodipodi:nodetypes="ccscc" />
          <path
             style="fill:#0077c0;fill-opacity:0.3372549;stroke:none;display:inline"
             d="m 430.12379,609.24611 c 42.83848,98.38393 4.90962,178.97321 4.90962,178.97321 0,0 3.50048,-31.008 5.61885,-50.79771 2.11837,-19.78972 -0.003,-33.36115 -2.67383,-45.63087 -5.77905,-26.54409 -28.19069,-62.14284 -28.19069,-62.14284 z"
             id="path3805-7"
             inkscape:connector-curvature="0"
             sodipodi:nodetypes="ccsscc" />
        </g>
      </g>
      <g
         transform="translate(2.1213166,-8.5164507)"
         id="g3964">
        <path
           sodipodi:nodetypes="ccscc"
           inkscape:connector-curvature="0"
           id="path3805-3"
           d="m 297.46687,611.20742 c -44.28572,100 -5.71429,181.42857 -5.71429,181.42857 0,0 0.5919,-52.60342 4.28572,-78.57143 3.85526,-27.10295 18.57142,-80 18.57142,-80 z"
           style="fill:#009eff;fill-opacity:1;stroke:none;display:inline" />
        <path
           style="fill:#0077c0;fill-opacity:0.3372549;stroke:none;display:inline"
           d="m 297.46687,611.20742 c 11.85714,58.5 13.56235,28.52054 -2.96429,57.21428 -7.44643,12.92857 -11.63393,33.98215 -10.45982,61.80358 1.1741,27.82142 7.70982,62.41071 7.70982,62.41071 0,0 0.5919,-52.60342 4.28572,-78.57143 3.85526,-27.10295 18.57142,-80 18.57142,-80 z"
           id="path3958"
           inkscape:connector-curvature="0"
           sodipodi:nodetypes="csscscc" />
      </g>
    </g>
  </g>
  <g
     inkscape:groupmode="layer"
     id="layer10"
     inkscape:label="guns-left" />
  <g
     inkscape:groupmode="layer"
     id="layer5"
     inkscape:label="base"
     style="display:inline">
    <path
       sodipodi:type="arc"
       style="fill:#009eff;fill-opacity:1;stroke:none;display:inline"
       id="path3000"
       sodipodi:cx="362.85715"
       sodipodi:cy="518.07648"
       sodipodi:rx="81.428574"
       sodipodi:ry="215.71428"
       d="m 444.28572,518.07648 a 81.428574,215.71428 0 1 1 -162.85715,0 81.428574,215.71428 0 1 1 162.85715,0 z"
       inkscape:export-filename="/home/aaron/projects/pewpew/assets/graphics/player.png"
       inkscape:export-xdpi="26.063484"
       inkscape:export-ydpi="26.063484" />
  </g>
  <g
     inkscape:groupmode="layer"
     id="layer11"
     inkscape:label="spots"
     style="display:inline">
    <g
       id="g4206"
       inkscape:export-filename="/home/aaron/projects/pewpew/assets/graphics/player.png"
       inkscape:export-xdpi="26.063484"
       inkscape:export-ydpi="26.063484">
      <path
         sodipodi:nodetypes="csc"
         inkscape:connector-curvature="0"
         id="path4154"
         d="m 325.92535,360.95851 c -5.30075,-2.17887 -8.22419,-7.17103 -6.5297,-11.15029 1.69449,-3.97926 7.34272,-5.38443 12.61568,-3.13854 5.27296,2.24588 8.19641,7.23803 6.52971,11.15028 -1.66671,3.91225 -7.31495,5.31743 -12.61569,3.13855 z m -9.9982,23.47405 c -5.34639,-2.06878 -8.30684,-6.97169 -6.61235,-10.95095 1.6945,-3.97926 7.37972,-5.47368 12.69833,-3.33788 5.31861,2.13579 8.27907,7.03869 6.61236,10.95094 -1.6667,3.91225 -7.35195,5.40667 -12.69834,3.33789 z m -4.32045,25.11914 c -1.45784,-0.1212 -2.8268,-0.46241 -4.04955,-0.98312 -1.78801,-0.76083 -3.26402,-1.90589 -4.2425,-3.2912 -0.97848,-1.3853 -1.45832,-3.01294 -1.2569,-4.69666 0.28522,-2.38421 1.88159,-4.382 4.15561,-5.53775 2.03567,-1.03898 4.60933,-1.40458 7.27866,-0.92928 2.66934,0.47529 4.97465,1.64347 6.61389,3.11928 1.83128,1.65285 2.84593,3.69355 2.59421,5.81026 -0.17776,1.49481 -0.96568,2.82691 -2.18309,3.90361 -1.21741,1.07669 -2.86436,1.89579 -4.75414,2.32401 -1.29235,0.29251 -2.69834,0.40206 -4.15619,0.28085 z"
         style="opacity:0.86000001;fill:#6aff6a;fill-opacity:0.46186446;stroke:none"
         inkscape:path-effect="#path-effect4156"
         inkscape:original-d="m 332.01138,346.66961 c 0,0 -5.81587,8.17889 -16.26346,38.18377 -4.30492,12.36351 -4.94974,38.89087 -4.94974,38.89087" />
      <path
         inkscape:original-d="m 334.01138,344.66961 c 0,0 -5.81587,8.17889 -16.26346,38.18377 -4.30492,12.36351 -4.94974,38.89087 -4.94974,38.89087"
         inkscape:path-effect="#path-effect4196"
         style="opacity:0.86000001;fill:#6aff6a;fill-opacity:0.46186446;stroke:none"
         d="m 327.92535,358.95851 c -5.30075,-2.17887 -8.22419,-7.17103 -6.5297,-11.15029 1.69449,-3.97926 7.34272,-5.38443 12.61568,-3.13854 5.27296,2.24588 8.19641,7.23803 6.52971,11.15028 -1.66671,3.91225 -7.31495,5.31743 -12.61569,3.13855 z m -9.9982,23.47405 c -5.34639,-2.06878 -8.30684,-6.97169 -6.61235,-10.95095 1.6945,-3.97926 7.37972,-5.47368 12.69833,-3.33788 5.31861,2.13579 8.27907,7.03869 6.61236,10.95094 -1.6667,3.91225 -7.35195,5.40667 -12.69834,3.33789 z m -4.32045,25.11914 c -1.45784,-0.1212 -2.8268,-0.46241 -4.04955,-0.98312 -1.78801,-0.76083 -3.26402,-1.90589 -4.2425,-3.2912 -0.97848,-1.3853 -1.45832,-3.01294 -1.2569,-4.69666 0.28522,-2.38421 1.88159,-4.382 4.15561,-5.53775 2.03567,-1.03898 4.60933,-1.40458 7.27866,-0.92928 2.66934,0.47529 4.97465,1.64347 6.61389,3.11928 1.83128,1.65285 2.84593,3.69355 2.59421,5.81026 -0.17776,1.49481 -0.96568,2.82691 -2.18309,3.90361 -1.21741,1.07669 -2.86436,1.89579 -4.75414,2.32401 -1.29235,0.29251 -2.69834,0.40206 -4.15619,0.28085 z"
         id="path4194"
         inkscape:connector-curvature="0"
         sodipodi:nodetypes="csc" />
    </g>
    <g
       id="g4202"
       transform="translate(-4,-2)"
       inkscape:export-filename="/home/aaron/projects/pewpew/assets/graphics/player.png"
       inkscape:export-xdpi="26.063484"
       inkscape:export-ydpi="26.063484">
      <path
         inkscape:original-d="m 395.9798,348.79093 c 0,0 5.81587,8.17889 16.26346,38.18377 4.30492,12.36351 4.94974,38.89087 4.94974,38.89087"
         inkscape:path-effect="#path-effect4146"
         style="opacity:0.86000001;fill:#6aff6a;fill-opacity:0.46186446;stroke:none"
         d="m 402.94702,362.68098 c -2.38907,1.04046 -4.85509,1.33778 -6.98804,1.03441 -2.13295,-0.30336 -3.93366,-1.20461 -5.03327,-2.63783 0,0 0,0 0,0 -0.22282,-0.28995 -0.41526,-0.59915 -0.57455,-0.92704 -0.91022,-1.87364 -0.57059,-3.97865 0.58236,-6.08354 0,0 0,0 0,0 0.54682,-0.99784 1.30946,-1.94822 2.21144,-2.88052 0,0 0,0 0,0 0.41119,-0.43367 0.85972,-0.85199 1.33848,-1.2582 0,0 0,0 0,0 0.22991,-0.19507 0.46707,-0.38697 0.71196,-0.57431 0,0 0,0 0,0 0.25285,-0.19329 0.51403,-0.38161 0.78444,-0.56295 0.27042,-0.18134 0.54432,-0.35175 0.82194,-0.50913 0,0 0,0 0,0 0.269,-0.15239 0.54145,-0.29261 0.81693,-0.41974 0,0 0,0 0,0 0.57363,-0.26472 1.16152,-0.471 1.74912,-0.62685 0,0 0,0 0,0 1.28584,-0.32773 2.60674,-0.36136 3.8234,-0.18983 0,0 0,0 0,0 2.56525,0.36059 4.80832,1.84531 5.86688,4.03008 0.18525,0.38233 0.32825,0.77246 0.43104,1.16664 0,0 0,0 0,0 0.50984,1.94827 0.0767,4.05872 -1.08977,5.92093 -1.16643,1.86221 -3.06328,3.47742 -5.45236,4.51788 z m 9.14541,23.86095 c -2.71033,0.94544 -5.44978,0.9805 -7.68759,0.29347 -2.2378,-0.68703 -3.97308,-2.0928 -4.69116,-4.06395 -0.71807,-1.97115 -0.28781,-4.14273 0.98087,-6.0993 1.26869,-1.95656 3.37652,-3.70225 6.05184,-4.74328 2.67531,-1.04104 5.418,-1.16517 7.68895,-0.49029 2.27095,0.67489 4.06623,2.14657 4.81932,4.21332 0.75309,2.06674 0.3196,4.3274 -0.98223,6.29611 -1.30184,1.9687 -3.46967,3.64848 -6.18,4.59392 z m 4.29202,25.13095 c -1.45767,0.12119 -2.8635,0.0117 -4.15572,-0.28075 -1.88989,-0.42817 -3.53696,-1.24726 -4.75445,-2.32398 -1.21749,-1.07672 -2.00547,-2.40887 -2.18324,-3.90374 -0.25171,-2.11663 0.76286,-4.15726 2.59402,-5.81009 1.62926,-1.49997 3.93843,-2.6591 6.61406,-3.11945 2.67564,-0.46036 5.25318,-0.0856 7.2789,0.92939 2.2739,1.15576 3.87018,3.1535 4.15539,5.53763 0.20143,1.68378 -0.27846,3.31149 -1.25702,4.69683 -0.97855,1.38534 -2.45468,2.53042 -4.24282,3.29122 -1.22264,0.52061 -2.59144,0.86175 -4.04912,0.98294 z"
         id="path4144"
         inkscape:connector-curvature="0"
         sodipodi:nodetypes="csc" />
      <path
         sodipodi:nodetypes="csc"
         inkscape:connector-curvature="0"
         id="path4198"
         d="m 404.94702,364.68098 c -2.38907,1.04046 -4.85509,1.33778 -6.98804,1.03441 -2.13295,-0.30336 -3.93366,-1.20461 -5.03327,-2.63783 0,0 0,0 0,0 -0.22282,-0.28995 -0.41526,-0.59915 -0.57455,-0.92704 -0.91022,-1.87364 -0.57059,-3.97865 0.58236,-6.08354 0,0 0,0 0,0 0.54682,-0.99784 1.30946,-1.94822 2.21144,-2.88052 0,0 0,0 0,0 0.41119,-0.43367 0.85972,-0.85199 1.33848,-1.2582 0,0 0,0 0,0 0.22991,-0.19507 0.46707,-0.38697 0.71196,-0.57431 0,0 0,0 0,0 0.25285,-0.19329 0.51403,-0.38161 0.78444,-0.56295 0.27042,-0.18134 0.54432,-0.35175 0.82194,-0.50913 0,0 0,0 0,0 0.269,-0.15239 0.54145,-0.29261 0.81693,-0.41974 0,0 0,0 0,0 0.57363,-0.26472 1.16152,-0.471 1.74912,-0.62685 0,0 0,0 0,0 1.28584,-0.32773 2.60674,-0.36136 3.8234,-0.18983 0,0 0,0 0,0 2.56525,0.36059 4.80832,1.84531 5.86688,4.03008 0.18525,0.38233 0.32825,0.77246 0.43104,1.16664 0,0 0,0 0,0 0.50984,1.94827 0.0767,4.05872 -1.08977,5.92093 -1.16643,1.86221 -3.06328,3.47742 -5.45236,4.51788 z m 9.14541,23.86095 c -2.71033,0.94544 -5.44978,0.9805 -7.68759,0.29347 -2.2378,-0.68703 -3.97308,-2.0928 -4.69116,-4.06395 -0.71807,-1.97115 -0.28781,-4.14273 0.98087,-6.0993 1.26869,-1.95656 3.37652,-3.70225 6.05184,-4.74328 2.67531,-1.04104 5.418,-1.16517 7.68895,-0.49029 2.27095,0.67489 4.06623,2.14657 4.81932,4.21332 0.75309,2.06674 0.3196,4.3274 -0.98223,6.29611 -1.30184,1.9687 -3.46967,3.64848 -6.18,4.59392 z m 4.29202,25.13095 c -1.45767,0.12119 -2.8635,0.0117 -4.15572,-0.28075 -1.88989,-0.42817 -3.53696,-1.24726 -4.75445,-2.32398 -1.21749,-1.07672 -2.00547,-2.40887 -2.18324,-3.90374 -0.25171,-2.11663 0.76286,-4.15726 2.59402,-5.81009 1.62926,-1.49997 3.93843,-2.6591 6.61406,-3.11945 2.67564,-0.46036 5.25318,-0.0856 7.2789,0.92939 2.2739,1.15576 3.87018,3.1535 4.15539,5.53763 0.20143,1.68378 -0.27846,3.31149 -1.25702,4.69683 -0.97855,1.38534 -2.45468,2.53042 -4.24282,3.29122 -1.22264,0.52061 -2.59144,0.86175 -4.04912,0.98294 z"
         style="opacity:0.86000001;fill:#6aff6a;fill-opacity:0.46186446;stroke:none"
         inkscape:path-effect="#path-effect4200"
         inkscape:original-d="m 397.9798,350.79093 c 0,0 5.81587,8.17889 16.26346,38.18377 4.30492,12.36351 4.94974,38.89087 4.94974,38.89087" />
    </g>
  </g>
  <g
     inkscape:groupmode="layer"
     id="layer13"
     inkscape:label="base-shadow"
     style="display:inline">
    <path
       style="fill:#0077c0;fill-opacity:0.33636367;stroke:none;display:inline"
       d="m 444.53872,517.67242 c 0,119.1357 -36.58181,216.33928 -81.55357,216.33928 -44.97176,0 13.54463,-99.40894 13.54463,-218.54464 0,-119.13571 -58.34662,-214.10564 -13.38746,-213.04109 44.79498,1.06066 81.3964,96.11074 81.3964,215.24645 z"
       id="path3000-2-5"
       inkscape:connector-curvature="0"
       sodipodi:nodetypes="sssss"
       inkscape:export-filename="/home/aaron/projects/pewpew/assets/graphics/player.png"
       inkscape:export-xdpi="26.063484"
       inkscape:export-ydpi="26.063484" />
  </g>
</svg>
